<?xml version="1.0" standalone="no"?><svg xmlns="http://www.w3.org/2000/svg" viewBox="0 0 1440 320"><path fill="#ffddde" fill-opacity="1" d="M0,160L20,181.3C40,203,80,245,120,256C160,267,200,245,240,240C280,235,320,245,360,229.3C400,213,440,171,480,181.3C520,192,560,256,600,261.3C640,267,680,213,720,176C760,139,800,117,840,128C880,139,920,181,960,208C1000,235,1040,245,1080,224C1120,203,1160,149,1200,154.7C1240,160,1280,224,1320,218.7C1360,213,1400,139,1420,101.3L1440,64L1440,0L1420,0C1400,0,1360,0,1320,0C1280,0,1240,0,1200,0C1160,0,1120,0,1080,0C1040,0,1000,0,960,0C920,0,880,0,840,0C800,0,760,0,720,0C680,0,640,0,600,0C560,0,520,0,480,0C440,0,400,0,360,0C320,0,280,0,240,0C200,0,160,0,120,0C80,0,40,0,20,0L0,0Z"></path></svg>